<svg id="Warstwa_1" data-name="Warstwa 1" xmlns="http://www.w3.org/2000/svg" xmlns:xlink="http://www.w3.org/1999/xlink" viewBox="0 0 49.75 49.47"><defs><style>.cls-1{fill:none;}.cls-2{clip-path:url(#clip-path);}.cls-3{fill:url(#Gradient_bez_nazwy_2);}</style><clipPath id="clip-path" transform="translate(-6.75 -16.68)"><path class="cls-1" d="M6.75,23.75a7.07,7.07,0,0,0,7.08,7.07h.11c.52,0,.75,0,1.2,0a14.15,14.15,0,0,1,8,25.83,6,6,0,0,0-.67.44l-.06,0a5.06,5.06,0,1,0,8.12,4.95v0A14,14,0,0,1,43.23,50.71l.18,0a14.15,14.15,0,0,0-1.06-28.26,13.67,13.67,0,0,0-5.59,1.1l-.12.06a14.18,14.18,0,0,1-5.79,1.24,14.36,14.36,0,0,1-11.57-5.58,7.07,7.07,0,0,0-12.53,4.5"/></clipPath><linearGradient id="Gradient_bez_nazwy_2" x1="-148.74" y1="565.12" x2="-148.16" y2="565.12" gradientTransform="matrix(85.74, 0, 0, -85.74, 12753.08, 48479.21)" gradientUnits="userSpaceOnUse"><stop offset="0" stop-color="#214191"/><stop offset="0.2" stop-color="#214191"/><stop offset="0.37" stop-color="#386ca4"/><stop offset="0.56" stop-color="#4d94b6"/><stop offset="0.74" stop-color="#5cb1c3"/><stop offset="0.89" stop-color="#66c3cb"/><stop offset="1" stop-color="#69c9ce"/></linearGradient></defs><title>logo_onboarding_graf</title><g class="cls-2"><rect class="cls-3" width="49.75" height="49.47"/></g></svg>