<svg id="Warstwa_1" data-name="Warstwa 1" xmlns="http://www.w3.org/2000/svg" xmlns:xlink="http://www.w3.org/1999/xlink" viewBox="0 0 289 49.47"><defs><style>.cls-1{fill:none;}.cls-2{clip-path:url(#clip-path);}.cls-3{fill:url(#Gradient_bez_nazwy_2);}.cls-4{fill:#fff;}</style><clipPath id="clip-path" transform="translate(-6.75 -16.68)"><path class="cls-1" d="M6.75,23.75a7.07,7.07,0,0,0,7.08,7.07h.11c.52,0,.75,0,1.2,0a14.15,14.15,0,0,1,8,25.83,6,6,0,0,0-.67.44l-.06,0a5.06,5.06,0,1,0,8.12,4.95v0A14,14,0,0,1,43.23,50.71l.18,0a14.15,14.15,0,0,0-1.06-28.26,13.67,13.67,0,0,0-5.59,1.1l-.12.06a14.18,14.18,0,0,1-5.79,1.24,14.36,14.36,0,0,1-11.57-5.58,7.07,7.07,0,0,0-12.53,4.5"/></clipPath><linearGradient id="Gradient_bez_nazwy_2" x1="-148.74" y1="565.12" x2="-148.16" y2="565.12" gradientTransform="matrix(85.74, 0, 0, -85.74, 12753.08, 48479.21)" gradientUnits="userSpaceOnUse"><stop offset="0" stop-color="#214191"/><stop offset="0.2" stop-color="#214191"/><stop offset="0.37" stop-color="#386ca4"/><stop offset="0.56" stop-color="#4d94b6"/><stop offset="0.74" stop-color="#5cb1c3"/><stop offset="0.89" stop-color="#66c3cb"/><stop offset="1" stop-color="#69c9ce"/></linearGradient></defs><title>logo_onboarding_single</title><g class="cls-2"><rect class="cls-3" width="49.75" height="49.47"/></g><path class="cls-4" d="M75.79,42.69A10,10,0,0,1,72,42a9.43,9.43,0,0,1-3.06-2,9.33,9.33,0,0,1-2-3.06,10,10,0,0,1-.72-3.82,9.82,9.82,0,0,1,.72-3.8,9.28,9.28,0,0,1,2-3.05,9.46,9.46,0,0,1,3.06-2,10,10,0,0,1,3.82-.72,9.82,9.82,0,0,1,3.8.72,9.31,9.31,0,0,1,5.08,5.08,9.82,9.82,0,0,1,.72,3.8,10,10,0,0,1-.72,3.82A9.22,9.22,0,0,1,79.59,42,9.82,9.82,0,0,1,75.79,42.69Zm0-1.44A8.3,8.3,0,0,0,79,40.64a7.73,7.73,0,0,0,2.61-1.73,7.94,7.94,0,0,0,1.73-2.6,8.86,8.86,0,0,0,0-6.46A7.9,7.9,0,0,0,79,25.52a8.83,8.83,0,0,0-6.45,0A7.94,7.94,0,0,0,70,27.25a7.79,7.79,0,0,0-1.73,2.6,8.86,8.86,0,0,0,0,6.46,7.93,7.93,0,0,0,4.33,4.33A8.38,8.38,0,0,0,75.79,41.25Z" transform="translate(-6.75 -16.68)"/><path class="cls-4" d="M89.71,42.45a.69.69,0,0,1-.52-.2.73.73,0,0,1-.2-.52V30.05a.71.71,0,0,1,.2-.53.73.73,0,0,1,.52-.19.72.72,0,0,1,.53.19.74.74,0,0,1,.19.53V41.73a.77.77,0,0,1-.19.52A.69.69,0,0,1,89.71,42.45Zm10.63,0a.69.69,0,0,1-.52-.2.73.73,0,0,1-.2-.52V35.28A5.06,5.06,0,0,0,99,32.66a4,4,0,0,0-1.66-1.55,5.75,5.75,0,0,0-4.69,0A4,4,0,0,0,91,32.45a3.3,3.3,0,0,0-.6,1.94h-1.2a5.35,5.35,0,0,1,.89-2.68,5.62,5.62,0,0,1,2.06-1.87A5.9,5.9,0,0,1,95,29.16a6.75,6.75,0,0,1,3.11.71,5.25,5.25,0,0,1,2.17,2.06,6.51,6.51,0,0,1,.79,3.35v6.45a.73.73,0,0,1-.2.52A.69.69,0,0,1,100.34,42.45Z" transform="translate(-6.75 -16.68)"/><path class="cls-4" d="M107.78,42.45a2.68,2.68,0,0,1-1.62-.5,3.33,3.33,0,0,1-1.1-1.39,4.93,4.93,0,0,1-.4-2.07V24.43a.67.67,0,0,1,.72-.72.7.7,0,0,1,.53.19.72.72,0,0,1,.19.53V38.49a3.28,3.28,0,0,0,.47,1.82,1.39,1.39,0,0,0,1.21.7h.6a.54.54,0,0,1,.43.2.76.76,0,0,1,.17.52.73.73,0,0,1-.19.52.69.69,0,0,1-.53.2Z" transform="translate(-6.75 -16.68)"/><path class="cls-4" d="M112.8,26.57a1,1,0,0,1-.78-.33,1.06,1.06,0,0,1-.33-.8,1,1,0,0,1,.35-.83,1.2,1.2,0,0,1,1.54,0,1,1,0,0,1,.34.83,1.06,1.06,0,0,1-.32.8A1.08,1.08,0,0,1,112.8,26.57Zm0,15.88a.69.69,0,0,1-.52-.2.73.73,0,0,1-.2-.52V30.05a.71.71,0,0,1,.2-.53.73.73,0,0,1,.52-.19.72.72,0,0,1,.53.19.7.7,0,0,1,.19.53V41.73a.73.73,0,0,1-.19.52A.69.69,0,0,1,112.82,42.45Z" transform="translate(-6.75 -16.68)"/><path class="cls-4" d="M119.06,42.45a.69.69,0,0,1-.52-.2.73.73,0,0,1-.2-.52V30.05a.71.71,0,0,1,.2-.53.73.73,0,0,1,.52-.19.72.72,0,0,1,.53.19.7.7,0,0,1,.19.53V41.73a.73.73,0,0,1-.19.52A.69.69,0,0,1,119.06,42.45Zm10.63,0a.66.66,0,0,1-.51-.2.7.7,0,0,1-.21-.52V35.28a5.06,5.06,0,0,0-.61-2.62,4,4,0,0,0-1.66-1.55,5.28,5.28,0,0,0-2.36-.51,5.34,5.34,0,0,0-2.33.49,4,4,0,0,0-1.63,1.36,3.3,3.3,0,0,0-.6,1.94h-1.2a5.35,5.35,0,0,1,.89-2.68,5.7,5.7,0,0,1,2.06-1.87,5.92,5.92,0,0,1,2.81-.68,6.75,6.75,0,0,1,3.11.71,5.25,5.25,0,0,1,2.17,2.06,6.51,6.51,0,0,1,.79,3.35v6.45a.73.73,0,0,1-.2.52A.69.69,0,0,1,129.69,42.45Z" transform="translate(-6.75 -16.68)"/><path class="cls-4" d="M140.3,42.57a6.59,6.59,0,0,1-3.37-.85,6.05,6.05,0,0,1-2.32-2.36,7,7,0,0,1-.84-3.46,7.39,7.39,0,0,1,.79-3.46,6.1,6.1,0,0,1,2.19-2.37,5.89,5.89,0,0,1,3.19-.86,6,6,0,0,1,3.14.82,5.8,5.8,0,0,1,2.14,2.28,7.1,7.1,0,0,1,.77,3.35.66.66,0,0,1-.19.49.72.72,0,0,1-.51.18H134.73V35.09h11l-1.06.79a5.83,5.83,0,0,0-.53-2.76,4.51,4.51,0,0,0-1.64-1.89,4.6,4.6,0,0,0-2.51-.68,4.5,4.5,0,0,0-2.44.68,4.82,4.82,0,0,0-1.68,1.89,6.15,6.15,0,0,0-.61,2.78,5.74,5.74,0,0,0,.65,2.76,4.81,4.81,0,0,0,1.8,1.89,5.14,5.14,0,0,0,2.64.68,5.94,5.94,0,0,0,1.88-.32,4,4,0,0,0,1.5-.86.74.74,0,0,1,.47-.2.64.64,0,0,1,.52,1.12,6.21,6.21,0,0,1-2,1.15A6.88,6.88,0,0,1,140.3,42.57Z" transform="translate(-6.75 -16.68)"/><path class="cls-4" d="M155.76,43.06a6.74,6.74,0,0,1-3.43-.85A6.21,6.21,0,0,1,150,39.86,7.45,7.45,0,0,1,150,33a6.24,6.24,0,0,1,2.34-2.36,7.31,7.31,0,0,1,6.84,0A6.24,6.24,0,0,1,161.51,33a6.85,6.85,0,0,1,.85,3.46,6.94,6.94,0,0,1-.84,3.45,6.12,6.12,0,0,1-2.33,2.35A6.74,6.74,0,0,1,155.76,43.06Zm0-2.16a4.25,4.25,0,0,0,2.21-.57,4.1,4.1,0,0,0,1.5-1.59,4.86,4.86,0,0,0,.54-2.33,4.93,4.93,0,0,0-.54-2.34,4,4,0,0,0-1.5-1.59,4.5,4.5,0,0,0-4.42,0A4.06,4.06,0,0,0,152,34.07a4.82,4.82,0,0,0-.55,2.34,4.75,4.75,0,0,0,.55,2.33,4.2,4.2,0,0,0,1.51,1.59A4.25,4.25,0,0,0,155.76,40.9Z" transform="translate(-6.75 -16.68)"/><path class="cls-4" d="M167.23,43a1.18,1.18,0,0,1-.87-.35,1.15,1.15,0,0,1-.35-.87V31.06a1.16,1.16,0,0,1,.35-.89,1.34,1.34,0,0,1,1.76,0,1.23,1.23,0,0,1,.34.89V41.77a1.22,1.22,0,0,1-.34.87A1.18,1.18,0,0,1,167.23,43Zm9.87,0a1.2,1.2,0,0,1-1.23-1.22V35.86a4.46,4.46,0,0,0-.5-2.23A3.16,3.16,0,0,0,174,32.35a4.37,4.37,0,0,0-1.95-.42,4.06,4.06,0,0,0-1.83.4,3.48,3.48,0,0,0-1.29,1.1,2.65,2.65,0,0,0-.48,1.57h-1.52a5,5,0,0,1,.74-2.7,5.28,5.28,0,0,1,2-1.89,5.9,5.9,0,0,1,2.86-.69,6,6,0,0,1,3,.71,5.07,5.07,0,0,1,2.06,2.07,6.79,6.79,0,0,1,.76,3.36v5.91A1.2,1.2,0,0,1,177.1,43Z" transform="translate(-6.75 -16.68)"/><path class="cls-4" d="M189,43.06a6.52,6.52,0,0,1-3.36-.87,6.44,6.44,0,0,1-2.36-2.39,7,7,0,0,1-.88-3.41V25.45a1.18,1.18,0,0,1,.34-.89,1.21,1.21,0,0,1,.88-.34,1.19,1.19,0,0,1,.89.34,1.21,1.21,0,0,1,.33.89v6.48a6.09,6.09,0,0,1,2-1.6,5.82,5.82,0,0,1,2.61-.59,5.74,5.74,0,0,1,3.14.88A6.2,6.2,0,0,1,194.8,33a7.17,7.17,0,0,1,.8,3.4,6.64,6.64,0,0,1-.88,3.41A6.42,6.42,0,0,1,189,43.06Zm0-2.16a4,4,0,0,0,2.18-.59,4.17,4.17,0,0,0,1.52-1.62,4.64,4.64,0,0,0,.57-2.3,4.56,4.56,0,0,0-.57-2.3,4.18,4.18,0,0,0-1.52-1.6A4.12,4.12,0,0,0,189,31.9a4.14,4.14,0,0,0-3.7,2.19,4.66,4.66,0,0,0-.55,2.3,4.74,4.74,0,0,0,.55,2.3,4.17,4.17,0,0,0,1.52,1.62A4.08,4.08,0,0,0,189,40.9Z" transform="translate(-6.75 -16.68)"/><path class="cls-4" d="M205.2,43.06a6.74,6.74,0,0,1-3.43-.85,6.14,6.14,0,0,1-2.34-2.35,7.45,7.45,0,0,1,0-6.91,6.17,6.17,0,0,1,2.34-2.36,7.31,7.31,0,0,1,6.84,0A6.24,6.24,0,0,1,211,33a6.85,6.85,0,0,1,.85,3.46,6.94,6.94,0,0,1-.84,3.45,6.12,6.12,0,0,1-2.33,2.35A6.74,6.74,0,0,1,205.2,43.06Zm0-2.16a4.25,4.25,0,0,0,2.21-.57,4.1,4.1,0,0,0,1.5-1.59,4.86,4.86,0,0,0,.54-2.33,4.93,4.93,0,0,0-.54-2.34,4,4,0,0,0-1.5-1.59,4.5,4.5,0,0,0-4.42,0,4.06,4.06,0,0,0-1.51,1.59,4.82,4.82,0,0,0-.55,2.34,4.75,4.75,0,0,0,.55,2.33A4.2,4.2,0,0,0,203,40.33,4.25,4.25,0,0,0,205.2,40.9Z" transform="translate(-6.75 -16.68)"/><path class="cls-4" d="M220.92,43.06a5.83,5.83,0,0,1-3.15-.87,6.28,6.28,0,0,1-2.19-2.38,7,7,0,0,1-.81-3.4,6.68,6.68,0,0,1,.88-3.4A6.42,6.42,0,0,1,218,30.62,6.6,6.6,0,0,1,227.12,33a6.58,6.58,0,0,1,.88,3.4h-.94a7.14,7.14,0,0,1-.8,3.4,6.31,6.31,0,0,1-2.2,2.38A5.8,5.8,0,0,1,220.92,43.06Zm.48-2.16a4,4,0,0,0,2.18-.59,4.08,4.08,0,0,0,1.51-1.6,5,5,0,0,0,0-4.61,4.22,4.22,0,0,0-5.86-1.61,4.26,4.26,0,0,0-1.54,1.61,5,5,0,0,0,0,4.61,4.23,4.23,0,0,0,1.54,1.6A4,4,0,0,0,221.4,40.9ZM226.77,43a1.2,1.2,0,0,1-1.22-1.22V38.09l.46-2.54,2,.86v5.36A1.2,1.2,0,0,1,226.77,43Z" transform="translate(-6.75 -16.68)"/><path class="cls-4" d="M232.85,43a1.23,1.23,0,0,1-.89-.3,1.19,1.19,0,0,1-.31-.9V31a1.08,1.08,0,0,1,1.2-1.2,1.06,1.06,0,0,1,1.2,1.2V41.77a1.2,1.2,0,0,1-.3.88A1.19,1.19,0,0,1,232.85,43Zm0-8.21a4.81,4.81,0,0,1,.71-2.58,5.11,5.11,0,0,1,1.91-1.81,5.3,5.3,0,0,1,2.64-.68,4,4,0,0,1,2.15.47,1,1,0,0,1,.54,1.12A.91.91,0,0,1,240,32a1.39,1.39,0,0,1-.57,0,6.63,6.63,0,0,0-2.76-.05,3.81,3.81,0,0,0-1.94,1,2.5,2.5,0,0,0-.7,1.83Z" transform="translate(-6.75 -16.68)"/><path class="cls-4" d="M248.66,43.06a6.48,6.48,0,0,1-5.75-3.26,6.73,6.73,0,0,1-.87-3.41,7.17,7.17,0,0,1,.8-3.4,6.2,6.2,0,0,1,2.2-2.37,5.72,5.72,0,0,1,3.14-.88,5.89,5.89,0,0,1,2.62.59,5.73,5.73,0,0,1,2,1.6V25.45a1.18,1.18,0,0,1,.35-.89,1.22,1.22,0,0,1,2.1.89V36.39a6.73,6.73,0,0,1-.87,3.41A6.62,6.62,0,0,1,252,42.19,6.52,6.52,0,0,1,248.66,43.06Zm0-2.16a4,4,0,0,0,2.19-.59,4.14,4.14,0,0,0,1.51-1.62,4.74,4.74,0,0,0,.55-2.3,4.66,4.66,0,0,0-.55-2.3,4.24,4.24,0,0,0-5.87-1.6,4.23,4.23,0,0,0-1.54,1.6,4.66,4.66,0,0,0-.56,2.3,4.75,4.75,0,0,0,.56,2.3,4.21,4.21,0,0,0,1.54,1.62A4,4,0,0,0,248.66,40.9Z" transform="translate(-6.75 -16.68)"/><path class="cls-4" d="M261.05,27.7a1.49,1.49,0,0,1-1.12-.47,1.52,1.52,0,0,1-.47-1.11,1.54,1.54,0,0,1,.47-1.12,1.56,1.56,0,0,1,2.23,0,1.54,1.54,0,0,1,.47,1.12,1.52,1.52,0,0,1-.47,1.11A1.48,1.48,0,0,1,261.05,27.7Zm0,15.27a1.19,1.19,0,0,1-.88-.35,1.21,1.21,0,0,1-.35-.88V31.06a1.2,1.2,0,0,1,.35-.89,1.22,1.22,0,0,1,.88-.33,1.15,1.15,0,0,1,1.22,1.22V41.74a1.2,1.2,0,0,1-.34.88A1.17,1.17,0,0,1,261.05,43Z" transform="translate(-6.75 -16.68)"/><path class="cls-4" d="M268.05,43a1.18,1.18,0,0,1-.87-.35,1.15,1.15,0,0,1-.35-.87V31.06a1.16,1.16,0,0,1,.35-.89,1.34,1.34,0,0,1,1.76,0,1.19,1.19,0,0,1,.34.89V41.77A1.18,1.18,0,0,1,268.05,43Zm9.87,0a1.2,1.2,0,0,1-1.23-1.22V35.86a4.36,4.36,0,0,0-.5-2.23,3.16,3.16,0,0,0-1.36-1.28,4.34,4.34,0,0,0-1.95-.42,4.09,4.09,0,0,0-1.83.4,3.48,3.48,0,0,0-1.29,1.1,2.65,2.65,0,0,0-.48,1.57h-1.51a5,5,0,0,1,.73-2.7,5.28,5.28,0,0,1,2-1.89,5.9,5.9,0,0,1,2.86-.69,6,6,0,0,1,3,.71,5.15,5.15,0,0,1,2.07,2.07,6.9,6.9,0,0,1,.75,3.36v5.91A1.2,1.2,0,0,1,277.92,43Z" transform="translate(-6.75 -16.68)"/><path class="cls-4" d="M288.67,43.06a5.91,5.91,0,0,1-3.18-.85,6,6,0,0,1-2.17-2.35,7.25,7.25,0,0,1-.79-3.45,6.85,6.85,0,0,1,.85-3.46,6.24,6.24,0,0,1,2.34-2.36,7.31,7.31,0,0,1,6.84,0A6.24,6.24,0,0,1,294.9,33a6.85,6.85,0,0,1,.85,3.46h-1.42a7.74,7.74,0,0,1-.73,3.45,5.84,5.84,0,0,1-2,2.35A5.14,5.14,0,0,1,288.67,43.06Zm.43,5.35a7.64,7.64,0,0,1-3.19-.67,6.71,6.71,0,0,1-2.52-2,1,1,0,0,1-.23-.84,1.06,1.06,0,0,1,.47-.69,1.14,1.14,0,0,1,.9-.19,1.25,1.25,0,0,1,.76.47,4.39,4.39,0,0,0,1.63,1.28,5.29,5.29,0,0,0,2.23.45,4.16,4.16,0,0,0,2.12-.55,3.94,3.94,0,0,0,1.55-1.63,5.48,5.48,0,0,0,.58-2.64V38l.79-2.11,1.56.5V41.6a7.09,7.09,0,0,1-.84,3.44,6.43,6.43,0,0,1-2.34,2.46A6.53,6.53,0,0,1,289.1,48.41Zm0-7.51a4.25,4.25,0,0,0,2.21-.57,4.1,4.1,0,0,0,1.5-1.59,4.86,4.86,0,0,0,.54-2.33,4.93,4.93,0,0,0-.54-2.34,4,4,0,0,0-1.5-1.59,4.5,4.5,0,0,0-4.42,0,4.06,4.06,0,0,0-1.51,1.59,4.82,4.82,0,0,0-.55,2.34,4.75,4.75,0,0,0,.55,2.33,4.2,4.2,0,0,0,1.51,1.59A4.25,4.25,0,0,0,289.15,40.9Z" transform="translate(-6.75 -16.68)"/></svg>