<?xml version="1.0" encoding="utf-8"?>
<!-- Generator: Adobe Illustrator 24.0.1, SVG Export Plug-In . SVG Version: 6.00 Build 0)  -->
<svg version="1.1" id="Warstwa_1" xmlns="http://www.w3.org/2000/svg" xmlns:xlink="http://www.w3.org/1999/xlink" x="0px" y="0px"
	 viewBox="0 0 49.8 49.5" style="enable-background:new 0 0 49.8 49.5;" xml:space="preserve">
<style type="text/css">
	.st0{clip-path:url(#SVGID_2_);}
	.st1{fill:url(#SVGID_3_);}
	.st2{clip-path:url(#SVGID_5_);}
	.st3{fill:url(#SVGID_6_);}
</style>
<g>
	<defs>
		<path id="SVGID_4_" d="M0,7.1c0,3.9,3.2,7.1,7.1,7.1c0,0,0,0,0,0h0.1c0.5,0,0.8,0,1.2,0c7.8,0,14.2,6.3,14.2,14.1
			c0,4.7-2.3,9.1-6.2,11.7c-0.2,0.1-0.5,0.3-0.7,0.4h-0.1c-2.2,1.7-2.5,4.9-0.8,7.1c1.7,2.2,4.9,2.5,7.1,0.8c0.9-0.7,1.6-1.8,1.8-3
			l0,0C25,39.1,30.2,34.5,36.5,34h0.2c7.8-0.6,13.6-7.4,13-15.2C49.2,11.5,43,5.8,35.6,5.8c-1.9,0-3.8,0.3-5.6,1.1l-0.1,0.1
			c-1.8,0.8-3.8,1.2-5.8,1.2c-4.5,0.1-8.8-2-11.6-5.6c-2.5-3-6.9-3.4-10-1C0.9,3,0,5,0,7.1"/>
	</defs>
	<clipPath id="SVGID_2_">
		<use xlink:href="#SVGID_4_"  style="overflow:visible;"/>
	</clipPath>
	<g class="st0">
		
			<linearGradient id="SVGID_3_" gradientUnits="userSpaceOnUse" x1="177.4111" y1="-488" x2="177.9914" y2="-488" gradientTransform="matrix(85.74 0 0 85.74 -15211.1191 41865.8555)">
			<stop  offset="0" style="stop-color:#214191"/>
			<stop  offset="0.2" style="stop-color:#214191"/>
			<stop  offset="0.37" style="stop-color:#386CA4"/>
			<stop  offset="0.56" style="stop-color:#4D94B6"/>
			<stop  offset="0.74" style="stop-color:#5CB1C3"/>
			<stop  offset="0.89" style="stop-color:#66C3CB"/>
			<stop  offset="1" style="stop-color:#69C9CE"/>
		</linearGradient>
		<rect class="st1" width="49.8" height="49.5"/>
	</g>
</g>
</svg>
