<svg width="16" height="16" viewBox="0 0 16 16" fill="none" xmlns="http://www.w3.org/2000/svg">
<path fill-rule="evenodd" clip-rule="evenodd" d="M12.0009 7.50063C12.0009 7.63324 11.9482 7.76042 11.8544 7.85419C11.7607 7.94795 11.6335 8.00063 11.5009 8.00063H5.70789L7.85489 10.1466C7.90138 10.1931 7.93826 10.2483 7.96342 10.309C7.98858 10.3698 8.00152 10.4349 8.00152 10.5006C8.00152 10.5664 7.98858 10.6315 7.96342 10.6922C7.93826 10.753 7.90138 10.8081 7.85489 10.8546C7.80841 10.9011 7.75322 10.938 7.69248 10.9632C7.63174 10.9883 7.56664 11.0013 7.50089 11.0013C7.43515 11.0013 7.37005 10.9883 7.30931 10.9632C7.24857 10.938 7.19338 10.9011 7.14689 10.8546L4.14689 7.85463C4.10033 7.80819 4.06339 7.75301 4.03818 7.69227C4.01297 7.63152 4 7.5664 4 7.50063C4 7.43486 4.01297 7.36974 4.03818 7.309C4.06339 7.24825 4.10033 7.19308 4.14689 7.14663L7.14689 4.14663C7.24078 4.05275 7.36812 4 7.50089 4C7.63367 4 7.76101 4.05275 7.85489 4.14663C7.94878 4.24052 8.00152 4.36786 8.00152 4.50063C8.00152 4.63341 7.94878 4.76075 7.85489 4.85463L5.70789 7.00063H11.5009C11.6335 7.00063 11.7607 7.05331 11.8544 7.14708C11.9482 7.24085 12.0009 7.36802 12.0009 7.50063Z" fill="white"/>
</svg>
