<svg width="28" height="28" viewBox="0 0 28 28" fill="none" xmlns="http://www.w3.org/2000/svg">
<path d="M7.77783 4.04443H21.7778V5.24999H7.77783V4.04443Z" fill="white"/>
<path d="M22.5557 6.22233H7.669C7.47051 6.21952 7.27465 6.17653 7.09323 6.09597C6.9118 6.0154 6.74858 5.89893 6.61339 5.75357C6.47821 5.60821 6.37386 5.43697 6.30665 5.25019C6.23944 5.0634 6.21076 4.86494 6.22233 4.66677C6.22136 4.27241 6.37022 3.89239 6.63879 3.60361C6.90736 3.31482 7.2756 3.13882 7.669 3.11122H22.5557C22.7619 3.11122 22.9598 3.02928 23.1056 2.88341C23.2515 2.73755 23.3334 2.53972 23.3334 2.33344C23.3334 2.12716 23.2515 1.92933 23.1056 1.78347C22.9598 1.63761 22.7619 1.55566 22.5557 1.55566H7.669C6.8629 1.58389 6.09927 1.92409 5.53917 2.50451C4.97907 3.08492 4.66628 3.86018 4.66678 4.66677C4.65925 4.7937 4.65925 4.92096 4.66678 5.04789C4.65928 5.10988 4.65928 5.17256 4.66678 5.23455V23.3334C4.66628 24.14 4.97907 24.9153 5.53917 25.4957C6.09927 26.0761 6.8629 26.4163 7.669 26.4446H22.5557C22.7619 26.4446 22.9598 26.3626 23.1056 26.2167C23.2515 26.0709 23.3334 25.8731 23.3334 25.6668V7.19455V7.12455V7.05455C23.3339 6.84295 23.2537 6.63912 23.1092 6.48452C22.9648 6.32993 22.7668 6.23617 22.5557 6.22233ZM21.7779 24.889H7.669C7.2756 24.8614 6.90736 24.6854 6.63879 24.3966C6.37022 24.1078 6.22136 23.7278 6.22233 23.3334V7.42789C6.66457 7.67185 7.16415 7.79272 7.669 7.77789H21.7779V24.889Z" fill="white"/>
</svg>
