<svg width="32" height="32" viewBox="0 0 32 32" fill="none" xmlns="http://www.w3.org/2000/svg">
<path d="M8.69634 10.6667C9.03301 6.92867 12.1743 4 15.9997 4C19.825 4 22.9663 6.92867 23.303 10.6667H23.4997C24.2279 10.6666 24.9479 10.8205 25.6124 11.1182C26.277 11.416 26.8711 11.8508 27.3558 12.3942C27.8405 12.9377 28.2048 13.5775 28.425 14.2716C28.6451 14.9657 28.716 15.6985 28.633 16.422C28.1154 15.8072 27.5153 15.267 26.8497 14.8167C26.6314 14.0982 26.1879 13.469 25.5847 13.0219C24.9815 12.5747 24.2505 12.3334 23.4997 12.3333H22.4997C22.0397 12.3333 21.6663 11.96 21.6663 11.5V11.3333C21.6663 9.83044 21.0693 8.3891 20.0066 7.3264C18.9439 6.26369 17.5026 5.66667 15.9997 5.66667C14.4968 5.66667 13.0554 6.26369 11.9927 7.3264C10.93 8.3891 10.333 9.83044 10.333 11.3333V11.5C10.333 11.96 9.95967 12.3333 9.49967 12.3333H8.49967C7.57142 12.3333 6.68118 12.7021 6.0248 13.3585C5.36842 14.0148 4.99967 14.9051 4.99967 15.8333C4.99967 16.7616 5.36842 17.6518 6.0248 18.3082C6.68118 18.9646 7.57142 19.3333 8.49967 19.3333H13.751C13.5777 19.868 13.4563 20.4253 13.3903 21H8.49967C7.12939 21 5.81523 20.4557 4.84629 19.4867C3.87735 18.5178 3.33301 17.2036 3.33301 15.8333C3.33301 14.463 3.87735 13.1489 4.84629 12.1799C5.81523 11.211 7.12939 10.6667 8.49967 10.6667H8.69634ZM29.333 22C29.333 17.95 26.0497 14.6667 21.9997 14.6667C17.9497 14.6667 14.6663 17.95 14.6663 22C14.6663 26.05 17.9497 29.3333 21.9997 29.3333C26.0497 29.3333 29.333 26.05 29.333 22ZM21.9997 16.6667C22.1765 16.6667 22.346 16.737 22.471 16.862L25.8043 20.1953C25.9258 20.3211 25.993 20.4895 25.9915 20.6643C25.9899 20.8391 25.9198 21.0063 25.7962 21.1299C25.6726 21.2535 25.5054 21.3236 25.3306 21.3251C25.1558 21.3266 24.9874 21.2594 24.8617 21.138L22.6663 18.9427V26.6667C22.6663 26.8435 22.5961 27.013 22.4711 27.1381C22.3461 27.2631 22.1765 27.3333 21.9997 27.3333C21.8229 27.3333 21.6533 27.2631 21.5283 27.1381C21.4032 27.013 21.333 26.8435 21.333 26.6667V18.9427L19.1377 21.138C19.0119 21.2594 18.8435 21.3266 18.6687 21.3251C18.4939 21.3236 18.3267 21.2535 18.2031 21.1299C18.0795 21.0063 18.0094 20.8391 18.0079 20.6643C18.0064 20.4895 18.0736 20.3211 18.195 20.1953L21.5283 16.862C21.6533 16.737 21.8229 16.6667 21.9997 16.6667Z" fill="white"/>
</svg>
