<svg width="32" height="32" viewBox="0 0 32 32" fill="none" xmlns="http://www.w3.org/2000/svg">
<path d="M11.399 7.008C10.439 8.182 10 9.7 10 11C10 11.2652 9.89464 11.5196 9.70711 11.7071C9.51957 11.8946 9.26522 12 9 12C5.376 12 4 14.528 4 16C4 16.855 4.216 17.835 4.878 18.591C5.515 19.322 6.708 20 9 20H13.852C13.667 20.64 13.552 21.31 13.514 22H9C6.293 22 4.485 21.18 3.372 19.909C2.284 18.665 2 17.145 2 16C2 13.644 3.93 10.47 8.057 10.047C8.229 8.591 8.797 7.031 9.851 5.742C11.166 4.134 13.201 3 16 3C17.7 3 19.682 3.562 21.258 4.851C22.679 6.014 23.731 7.738 23.955 10.057C25.333 10.222 26.669 10.74 27.736 11.565C29.063 12.589 30 14.114 30 16C30 16.463 29.96 16.912 29.876 17.342C29.3372 16.573 28.682 15.8925 27.934 15.325C27.761 14.457 27.253 13.718 26.514 13.148C25.577 12.424 24.296 12 23 12C22.7348 12 22.4804 11.8946 22.2929 11.7071C22.1054 11.5196 22 11.2652 22 11C22 8.8 21.134 7.334 19.992 6.399C18.818 5.439 17.3 5 16 5C13.8 5 12.334 5.866 11.399 7.008ZM30 22.5C30 24.4891 29.2098 26.3968 27.8033 27.8033C26.3968 29.2098 24.4891 30 22.5 30C20.5109 30 18.6032 29.2098 17.1967 27.8033C15.7902 26.3968 15 24.4891 15 22.5C15 20.5109 15.7902 18.6032 17.1967 17.1967C18.6032 15.7902 20.5109 15 22.5 15C24.4891 15 26.3968 15.7902 27.8033 17.1967C29.2098 18.6032 30 20.5109 30 22.5ZM27.293 19.733C27.1558 19.589 26.9672 19.5054 26.7684 19.5006C26.5696 19.4957 26.377 19.5699 26.233 19.707L21.488 24.226L19.255 22.195C19.1078 22.0611 18.9134 21.9911 18.7146 22.0005C18.5159 22.0098 18.3289 22.0978 18.195 22.245C18.0611 22.3922 17.9911 22.5866 18.0005 22.7854C18.0098 22.9841 18.0978 23.1711 18.245 23.305L20.995 25.805C21.1353 25.9326 21.3187 26.0023 21.5084 26C21.698 25.9978 21.8797 25.9238 22.017 25.793L27.267 20.793C27.411 20.6558 27.4946 20.4672 27.4994 20.2684C27.5043 20.0696 27.4301 19.877 27.293 19.733Z" fill="white"/>
</svg>
