<svg width="20" height="20" viewBox="0 0 20 20" fill="none" xmlns="http://www.w3.org/2000/svg">
<path d="M2.91602 5.62512L2.91852 3.85596C2.55226 3.98487 2.23505 4.2243 2.0107 4.5412C1.78635 4.85811 1.66591 5.23684 1.66602 5.62512V14.3785C1.66602 15.4283 2.08305 16.4351 2.82538 17.1774C3.56772 17.9198 4.57453 18.3368 5.62435 18.3368H9.84435C9.48647 17.965 9.18342 17.5441 8.94435 17.0868H5.62435C4.90605 17.0868 4.21718 16.8014 3.70927 16.2935C3.20136 15.7856 2.91602 15.0968 2.91602 14.3785V5.62512Z" fill="white"/>
<path d="M15 9.31175V3.54175C15 3.04447 14.8025 2.56755 14.4508 2.21592C14.0992 1.86429 13.6223 1.66675 13.125 1.66675H5.625C5.12772 1.66675 4.65081 1.86429 4.29917 2.21592C3.94754 2.56755 3.75 3.04447 3.75 3.54175V14.3751C3.75 14.8724 3.94754 15.3493 4.29917 15.7009C4.65081 16.0525 5.12772 16.2501 5.625 16.2501H8.59417C8.46343 15.8445 8.38119 15.425 8.34917 15.0001H5.625C5.45924 15.0001 5.30027 14.9342 5.18306 14.817C5.06585 14.6998 5 14.5408 5 14.3751V3.54175C5 3.37599 5.06585 3.21702 5.18306 3.09981C5.30027 2.9826 5.45924 2.91675 5.625 2.91675H13.125C13.2908 2.91675 13.4497 2.9826 13.5669 3.09981C13.6842 3.21702 13.75 3.37599 13.75 3.54175V9.16675C14.18 9.16675 14.5983 9.21675 15 9.31175Z" fill="white"/>
<path d="M13.7493 10C14.9649 10 16.1307 10.4829 16.9903 11.3424C17.8498 12.202 18.3327 13.3678 18.3327 14.5833C18.3327 15.7989 17.8498 16.9647 16.9903 17.8242C16.1307 18.6838 14.9649 19.1667 13.7493 19.1667C12.5338 19.1667 11.368 18.6838 10.5084 17.8242C9.6489 16.9647 9.16602 15.7989 9.16602 14.5833C9.16602 13.3678 9.6489 12.202 10.5084 11.3424C11.368 10.4829 12.5338 10 13.7493 10ZM14.1668 17.0858V15H16.2468C16.3574 15 16.4633 14.9561 16.5415 14.878C16.6196 14.7998 16.6635 14.6938 16.6635 14.5833C16.6635 14.4728 16.6196 14.3668 16.5415 14.2887C16.4633 14.2106 16.3574 14.1667 16.2468 14.1667H14.166V12.0833C14.166 11.9728 14.1221 11.8668 14.044 11.7887C13.9658 11.7106 13.8599 11.6667 13.7493 11.6667C13.6388 11.6667 13.5329 11.7106 13.4547 11.7887C13.3766 11.8668 13.3327 11.9728 13.3327 12.0833V14.1667H11.246C11.1355 14.1667 11.0295 14.2106 10.9514 14.2887C10.8732 14.3668 10.8293 14.4728 10.8293 14.5833C10.8293 14.6938 10.8732 14.7998 10.9514 14.878C11.0295 14.9561 11.1355 15 11.246 15H13.3327V17.0858C13.3327 17.1963 13.3766 17.3023 13.4547 17.3805C13.5329 17.4586 13.6388 17.5025 13.7493 17.5025C13.8599 17.5025 13.9658 17.4586 14.044 17.3805C14.1221 17.3023 14.166 17.1963 14.166 17.0858H14.1668Z" fill="white"/>
</svg>
