<svg width="18" height="18" viewBox="0 0 18 18" fill="none" xmlns="http://www.w3.org/2000/svg">
<path fill-rule="evenodd" clip-rule="evenodd" d="M12.0001 6.75C12.0001 7.54565 11.684 8.30871 11.1214 8.87132C10.5588 9.43393 9.79571 9.75 9.00007 9.75C8.20442 9.75 7.44135 9.43393 6.87874 8.87132C6.31614 8.30871 6.00006 7.54565 6.00006 6.75C6.00006 5.95435 6.31614 5.19129 6.87874 4.62868C7.44135 4.06607 8.20442 3.75 9.00007 3.75C9.79571 3.75 10.5588 4.06607 11.1214 4.62868C11.684 5.19129 12.0001 5.95435 12.0001 6.75ZM10.5001 6.75C10.5001 7.14783 10.342 7.52936 10.0607 7.81066C9.77942 8.09197 9.39789 8.25 9.00007 8.25C8.60224 8.25 8.22071 8.09197 7.93941 7.81066C7.6581 7.52936 7.50006 7.14783 7.50006 6.75C7.50006 6.35218 7.6581 5.97064 7.93941 5.68934C8.22071 5.40804 8.60224 5.25 9.00007 5.25C9.39789 5.25 9.77942 5.40804 10.0607 5.68934C10.342 5.97064 10.5001 6.35218 10.5001 6.75Z" fill="white" fill-opacity="0.7"/>
<path fill-rule="evenodd" clip-rule="evenodd" d="M9.00003 0.75C4.44378 0.75 0.750032 4.44375 0.750032 9C0.750032 13.5562 4.44378 17.25 9.00003 17.25C13.5563 17.25 17.25 13.5562 17.25 9C17.25 4.44375 13.5563 0.75 9.00003 0.75ZM2.25003 9C2.25003 10.5675 2.78478 12.0105 3.68103 13.1565C4.31046 12.3299 5.12246 11.6601 6.05361 11.1992C6.98476 10.7384 8.00984 10.4991 9.04878 10.5C10.0743 10.499 11.0865 10.7321 12.0082 11.1816C12.93 11.631 13.737 12.2849 14.3678 13.0935C15.0176 12.2412 15.4552 11.2464 15.6442 10.1914C15.8332 9.13647 15.7684 8.05165 15.4549 7.02674C15.1415 6.00183 14.5884 5.06629 13.8416 4.29753C13.0948 3.52877 12.1757 2.94889 11.1603 2.60588C10.1449 2.26287 9.06243 2.16658 8.00243 2.32498C6.94242 2.48338 5.93538 2.89192 5.06461 3.51679C4.19384 4.14166 3.48439 4.9649 2.99495 5.9184C2.50552 6.87189 2.25017 7.92823 2.25003 9ZM9.00003 15.75C7.45049 15.7523 5.94773 15.2193 4.74603 14.241C5.22973 13.5486 5.87354 12.9832 6.62268 12.593C7.37182 12.2028 8.20412 11.9994 9.04878 12C9.8829 11.9993 10.7051 12.1977 11.4472 12.5786C12.1893 12.9595 12.8298 13.5119 13.3155 14.19C12.1045 15.2 10.577 15.7522 9.00003 15.75Z" fill="white" fill-opacity="0.7"/>
</svg>
