<svg width="20" height="20" viewBox="0 0 20 20" fill="none" xmlns="http://www.w3.org/2000/svg">
<path d="M15.6056 5.41122C15.3868 5.41448 15.1696 5.45005 14.9612 5.51678C14.8556 4.82789 14.1001 4.30567 13.1445 4.30567C12.8549 4.29609 12.5661 4.34327 12.2945 4.44456C12.1218 4.14043 11.8674 3.89075 11.5601 3.72383C11.2527 3.5569 10.9048 3.4794 10.5556 3.50011C10.2507 3.48654 9.94689 3.54601 9.66956 3.67356C9.39222 3.80112 9.14937 3.99307 8.9612 4.23344C8.64353 4.04515 8.28047 3.94719 7.9112 3.95011C7.46875 3.92083 7.03245 4.06616 6.69593 4.3549C6.35941 4.64364 6.14949 5.05279 6.1112 5.49456V6.00011C5.52231 6.22233 3.82787 7.00011 3.38342 8.689C2.93898 10.3779 3.57231 13.1334 4.87787 15.2334C5.75552 16.6017 6.86467 17.8067 8.15565 18.7946C8.24135 18.8564 8.34443 18.8894 8.45009 18.889H14.1945C14.3051 18.8878 14.4123 18.8508 14.5001 18.7834C15.4977 17.8641 16.2192 16.6847 16.5834 15.3779C17.2134 13.6572 17.5076 11.8316 17.4501 10.0001V6.94456C17.405 6.49821 17.1865 6.08741 16.8415 5.80062C16.4965 5.51383 16.0527 5.374 15.6056 5.41122ZM16.4501 10.0001C16.5107 11.7315 16.2333 13.4581 15.6334 15.0834C15.3191 16.1349 14.7592 17.0965 14.0001 17.889H8.59453C7.46449 16.9946 6.4886 15.9211 5.70565 14.7112C4.38898 12.5668 4.03898 10.139 4.32787 8.939C4.47933 8.52313 4.71629 8.14363 5.02346 7.82499C5.33062 7.50634 5.70117 7.25562 6.1112 7.089V11.339C6.1112 11.4716 6.16388 11.5988 6.25765 11.6926C6.35142 11.7863 6.47859 11.839 6.6112 11.839C6.74381 11.839 6.87099 11.7863 6.96475 11.6926C7.05852 11.5988 7.1112 11.4716 7.1112 11.339V5.49456C7.1112 5.23344 7.43898 4.939 7.92231 4.939C8.40565 4.939 8.75009 5.22789 8.75009 5.49456V8.67233H9.75009V4.89456C9.75009 4.739 10.0723 4.50011 10.5612 4.50011C11.0501 4.50011 11.4112 4.76678 11.4112 4.91678V8.74456H12.4112V5.55567L12.5056 5.489C12.7017 5.36603 12.9299 5.30415 13.1612 5.31122C13.6779 5.31122 13.9945 5.55567 13.9945 5.689V9.30011H15.0001V6.59456C15.1833 6.46999 15.4009 6.40589 15.6223 6.41122C16.1001 6.41122 16.4668 6.69456 16.4668 6.93344L16.4501 10.0001Z" fill="white"/>
</svg>
