<svg width="206" height="34" viewBox="0 0 206 34" fill="none" xmlns="http://www.w3.org/2000/svg">
<g clip-path="url(#clip0)">
<path d="M159.461 19.0799C158.402 19.091 157.349 18.9149 156.351 18.5599C155.522 18.2935 154.761 17.8499 154.121 17.2599C154.007 17.1457 153.921 17.0071 153.869 16.8546C153.817 16.7021 153.801 16.5398 153.821 16.3799C153.839 16.2211 153.89 16.0678 153.971 15.93C154.052 15.7921 154.161 15.6729 154.291 15.5799C154.418 15.4621 154.568 15.372 154.731 15.3152C154.895 15.2584 155.068 15.2362 155.241 15.2499C155.55 15.288 155.834 15.4373 156.041 15.6699C156.413 16.0421 156.859 16.3317 157.351 16.5199C157.982 16.7938 158.663 16.9302 159.351 16.9199C160.086 16.9648 160.82 16.8056 161.471 16.4599C161.688 16.3476 161.872 16.1807 162.006 15.9755C162.139 15.7704 162.217 15.5341 162.231 15.2899C162.23 15.0405 162.166 14.7953 162.045 14.5769C161.925 14.3585 161.751 14.1739 161.541 14.0399C160.751 13.5743 159.872 13.2812 158.961 13.1799C157.687 13.0065 156.479 12.5109 155.451 11.7399C155.102 11.4545 154.822 11.0941 154.631 10.6855C154.441 10.2769 154.345 9.83068 154.351 9.37994C154.33 8.64633 154.587 7.93196 155.071 7.37994C155.573 6.82628 156.211 6.41275 156.921 6.17994C157.675 5.91147 158.47 5.77613 159.271 5.77994C160.231 5.76319 161.185 5.933 162.081 6.27994C162.858 6.5648 163.547 7.04734 164.081 7.67994C164.285 7.89548 164.397 8.18289 164.391 8.47994C164.381 8.62174 164.339 8.75948 164.268 8.88256C164.197 9.00564 164.099 9.11079 163.981 9.18994C163.712 9.36396 163.385 9.42503 163.071 9.35994C162.738 9.30226 162.429 9.14945 162.181 8.91994C161.814 8.5604 161.369 8.2901 160.881 8.12994C160.361 7.98222 159.822 7.91147 159.281 7.91994C158.664 7.90033 158.052 8.02354 157.491 8.27994C157.285 8.3575 157.106 8.49343 156.977 8.67106C156.847 8.84869 156.772 9.0603 156.761 9.27994C156.755 9.55602 156.832 9.82756 156.981 10.0599C157.219 10.3468 157.53 10.5644 157.881 10.6899C158.532 10.9246 159.2 11.1052 159.881 11.2299C160.869 11.3988 161.828 11.7051 162.731 12.1399C163.333 12.4299 163.85 12.8709 164.231 13.4199C164.537 13.9297 164.693 14.5155 164.681 15.1099C164.692 15.8211 164.486 16.5187 164.091 17.1099C163.662 17.7331 163.066 18.222 162.371 18.5199C161.454 18.9179 160.46 19.1091 159.461 19.0799Z" fill="white"/>
<path d="M9.62059 19.2201C8.31242 19.2323 7.01457 18.9876 5.80059 18.5001C4.65461 18.0404 3.61365 17.3532 2.74055 16.4801C1.86744 15.607 1.1803 14.5661 0.720591 13.4201C0.23303 12.2061 -0.0115914 10.9082 0.00059056 9.60007C-0.0136872 8.2982 0.231059 7.00648 0.720591 5.80007C1.17894 4.66111 1.85873 3.62443 2.72059 2.75007C3.60085 1.89079 4.64026 1.21144 5.78059 0.750069C6.99457 0.262508 8.29242 0.0178871 9.60059 0.0300691C10.9024 0.0165885 12.194 0.261305 13.4006 0.750069C14.5416 1.21814 15.5783 1.90826 16.4503 2.78033C17.3224 3.6524 18.0125 4.68905 18.4806 5.83007C18.9701 7.03648 19.2149 8.3282 19.2006 9.63007C19.2128 10.9382 18.9682 12.2361 18.4806 13.4501C18.0192 14.5904 17.3399 15.6298 16.4806 16.5101C15.6062 17.3719 14.5695 18.0517 13.4306 18.5101C12.2201 18.9967 10.9251 19.2381 9.62059 19.2201ZM9.62059 17.7801C10.7236 17.7904 11.8178 17.5831 12.8406 17.1701C13.8151 16.7748 14.6996 16.1863 15.4406 15.4401C16.1837 14.6965 16.7717 13.8127 17.1706 12.8401C17.9836 10.7635 17.9836 8.45667 17.1706 6.38007C16.7719 5.40735 16.1838 4.52361 15.4404 3.78026C14.697 3.0369 13.8133 2.44877 12.8406 2.05007C11.8178 1.63704 10.7236 1.42976 9.62059 1.44007C8.51085 1.42685 7.40954 1.63419 6.38059 2.05007C5.40794 2.44893 4.52419 3.03697 3.78059 3.78007C3.03433 4.52108 2.44584 5.40551 2.05059 6.38007C1.2376 8.45667 1.2376 10.7635 2.05059 12.8401C2.44929 13.8128 3.03743 14.6965 3.78078 15.4399C4.52413 16.1832 5.40787 16.7714 6.38059 17.1701C7.40954 17.5859 8.51085 17.7933 9.62059 17.7801Z" fill="white"/>
<path d="M23.5392 18.9801C23.4434 18.9847 23.3477 18.9693 23.2581 18.9349C23.1686 18.9005 23.0872 18.8477 23.0192 18.7801C22.8864 18.64 22.8145 18.453 22.8192 18.2601V6.58007C22.8144 6.48273 22.8297 6.38544 22.8641 6.29426C22.8985 6.20308 22.9513 6.11996 23.0192 6.05007C23.1609 5.92092 23.3477 5.85267 23.5392 5.86007C23.6358 5.85451 23.7325 5.86847 23.8236 5.90112C23.9146 5.93376 23.9982 5.98442 24.0692 6.05007C24.1359 6.12045 24.1872 6.20389 24.2199 6.29513C24.2526 6.38636 24.266 6.48339 24.2592 6.58007V18.2601C24.2666 18.4516 24.1984 18.6384 24.0692 18.7801C24.0001 18.849 23.9171 18.9025 23.8257 18.937C23.7343 18.9714 23.6367 18.9861 23.5392 18.9801ZM34.1692 18.9801C34.0749 18.9852 33.9805 18.97 33.8925 18.9355C33.8045 18.901 33.725 18.848 33.6592 18.7801C33.5903 18.7126 33.536 18.6315 33.4999 18.542C33.4637 18.4525 33.4465 18.3565 33.4492 18.2601V11.8101C33.486 10.8977 33.2752 9.99237 32.8392 9.19007C32.4474 8.5287 31.8703 7.99675 31.1792 7.66007C30.4414 7.3305 29.6423 7.16016 28.8342 7.16016C28.0261 7.16016 27.2271 7.3305 26.4892 7.66007C25.8333 7.95832 25.2702 8.4282 24.8592 9.02007C24.4603 9.5876 24.2503 10.2664 24.2592 10.9601H23.0592C23.1105 10.0032 23.4179 9.07757 23.9492 8.28007C24.4709 7.49615 25.1786 6.85368 26.0092 6.41007C26.8686 5.92951 27.8347 5.67168 28.8192 5.66007C29.8982 5.6401 30.9658 5.88382 31.9292 6.37007C32.8486 6.83659 33.6103 7.56349 34.1192 8.46007C34.6783 9.48564 34.9512 10.6428 34.9092 11.8101V18.2601C34.9139 18.453 34.842 18.64 34.7092 18.7801C34.6389 18.8503 34.5543 18.9046 34.4611 18.9391C34.3679 18.9736 34.2683 18.9876 34.1692 18.9801Z" fill="white"/>
<path d="M45.6694 19.1301C44.4822 19.1465 43.312 18.8462 42.2794 18.2601C41.2915 17.7019 40.4701 16.8908 39.8994 15.9101C39.301 14.8907 38.9803 13.7321 38.9694 12.5501V0.960076C38.9652 0.864391 38.9809 0.768867 39.0156 0.679584C39.0502 0.590302 39.1031 0.509217 39.1708 0.44149C39.2386 0.373763 39.3197 0.320879 39.4089 0.286202C39.4982 0.251526 39.5937 0.235817 39.6894 0.240076C39.7863 0.230785 39.884 0.243027 39.9756 0.275925C40.0672 0.308824 40.1503 0.361564 40.2191 0.43037C40.2879 0.499176 40.3407 0.582344 40.3736 0.67392C40.4065 0.765496 40.4187 0.863215 40.4094 0.960076V8.45008C40.9324 7.60152 41.6753 6.9104 42.5594 6.45008C43.5162 5.94165 44.5861 5.68364 45.6694 5.70008C46.8744 5.6787 48.0628 5.9827 49.1094 6.58008C50.1117 7.14395 50.9414 7.97019 51.5094 8.97008C52.0871 10.0228 52.39 11.2042 52.39 12.4051C52.39 13.6059 52.0871 14.7873 51.5094 15.8401C50.9445 16.8449 50.1142 17.6751 49.1094 18.2401C48.0638 18.8409 46.8753 19.1484 45.6694 19.1301ZM45.6694 17.7801C46.6165 17.798 47.5504 17.5559 48.3694 17.0801C49.1501 16.6115 49.7974 15.9504 50.2494 15.1601C50.7247 14.3226 50.9664 13.3729 50.9494 12.4101C50.9692 11.476 50.7408 10.5535 50.2876 9.73656C49.8343 8.91964 49.1724 8.2376 48.3694 7.76008C47.7697 7.40484 47.1054 7.17212 46.4151 7.07539C45.7247 6.97866 45.0221 7.01985 44.3478 7.19656C43.6735 7.37327 43.0409 7.682 42.4868 8.10487C41.9326 8.52774 41.4679 9.05634 41.1194 9.66008C40.6499 10.4958 40.4117 11.4416 40.4294 12.4001C40.4125 13.3648 40.6505 14.3169 41.1194 15.1601C41.5715 15.9706 42.2357 16.6427 43.0408 17.1043C43.8459 17.5659 44.7616 17.7995 45.6894 17.7801H45.6694Z" fill="white"/>
<path d="M61.989 19.1301C60.7811 19.1503 59.5897 18.8464 58.539 18.2501C57.5385 17.6794 56.7096 16.8506 56.139 15.8501C55.5684 14.7969 55.2695 13.6179 55.2695 12.4201C55.2695 11.2222 55.5684 10.0433 56.139 8.99006C56.7096 7.98954 57.5385 7.16067 58.539 6.59006C59.5897 5.9937 60.7811 5.68983 61.989 5.71006C63.1908 5.68849 64.3761 5.99258 65.419 6.59006C66.4168 7.16091 67.2424 7.98994 67.809 8.99006C68.3797 10.0433 68.6786 11.2222 68.6786 12.4201C68.6786 13.6179 68.3797 14.7969 67.809 15.8501C67.2424 16.8502 66.4168 17.6792 65.419 18.2501C64.3761 18.8475 63.1908 19.1516 61.989 19.1301ZM61.989 17.7801C62.936 17.797 63.8696 17.5549 64.689 17.0801C65.4666 16.6108 66.1105 15.9497 66.559 15.1601C67.0056 14.3158 67.2391 13.3752 67.2391 12.4201C67.2391 11.465 67.0056 10.5243 66.559 9.68006C66.1105 8.89042 65.4666 8.22928 64.689 7.76006C63.8649 7.3012 62.9373 7.06036 61.994 7.06036C61.0508 7.06036 60.1232 7.3012 59.299 7.76006C58.5152 8.22249 57.8615 8.87622 57.399 9.66006C56.9465 10.5025 56.7097 11.4438 56.7097 12.4001C56.7097 13.3563 56.9465 14.2977 57.399 15.1401C57.8588 15.9312 58.5127 16.592 59.299 17.0601C60.1134 17.5406 61.0435 17.7896 61.989 17.7801Z" fill="white"/>
<path d="M78.2792 19.1301C77.0743 19.1514 75.8859 18.8474 74.8392 18.25C73.8344 17.6851 73.0042 16.8549 72.4392 15.85C71.8615 14.7991 71.5586 13.6193 71.5586 12.42C71.5586 11.2208 71.8615 10.041 72.4392 8.99005C73.0042 7.98524 73.8344 7.15502 74.8392 6.59005C75.892 6.01234 77.0734 5.70947 78.2742 5.70947C79.4751 5.70947 80.6565 6.01234 81.7092 6.59005C82.7165 7.15521 83.5499 7.98517 84.1192 8.99005C84.7166 10.0367 85.0206 11.2251 84.9992 12.43L84.3992 13.43C84.414 14.4626 84.1366 15.4783 83.5992 16.3601C83.064 17.222 82.3124 17.9288 81.4192 18.41C80.4531 18.9194 79.3708 19.1676 78.2792 19.1301ZM78.2792 17.78C79.2263 17.798 80.1602 17.5559 80.9792 17.08C81.7621 16.6143 82.4101 15.9526 82.8592 15.16C83.3058 14.3158 83.5393 13.3752 83.5393 12.42C83.5393 11.4649 83.3058 10.5243 82.8592 9.68005C82.4101 8.88752 81.7621 8.22576 80.9792 7.76005C80.1551 7.30119 79.2275 7.06036 78.2842 7.06036C77.341 7.06036 76.4134 7.30119 75.5892 7.76005C74.806 8.21994 74.155 8.87443 73.6992 9.66005C73.2397 10.5002 72.9989 11.4424 72.9989 12.4C72.9989 13.3577 73.2397 14.2999 73.6992 15.14C74.1522 15.933 74.8035 16.5946 75.5892 17.06C76.4042 17.5392 77.3339 17.7881 78.2792 17.78ZM84.2792 18.98C84.1803 18.9857 84.0813 18.9708 83.9884 18.9364C83.8955 18.902 83.8106 18.8487 83.7392 18.78C83.6065 18.64 83.5345 18.453 83.5392 18.26V13.87L83.9892 12.43H84.9892V18.26C84.9926 18.4509 84.9249 18.6363 84.7992 18.78C84.7324 18.8493 84.6512 18.9031 84.5614 18.9376C84.4716 18.9722 84.3753 18.9866 84.2792 18.98Z" fill="white"/>
<path d="M89.3009 18.9801C89.2051 18.9847 89.1094 18.9693 89.0199 18.9349C88.9303 18.9005 88.849 18.8477 88.781 18.7801C88.6482 18.64 88.5762 18.453 88.5809 18.2601V6.58008C88.5761 6.48275 88.5914 6.38546 88.6258 6.29427C88.6602 6.20309 88.713 6.11997 88.781 6.05008C88.9226 5.92093 89.1094 5.85269 89.3009 5.86009C89.3975 5.85453 89.4942 5.86849 89.5853 5.90113C89.6764 5.93378 89.7599 5.98443 89.8309 6.05008C89.9616 6.19482 90.0299 6.38528 90.021 6.58008V18.2601C90.0243 18.451 89.9566 18.6363 89.8309 18.7801C89.7618 18.849 89.6788 18.9025 89.5874 18.937C89.4961 18.9715 89.3984 18.9862 89.3009 18.9801ZM89.061 10.9801C89.1314 10.0184 89.4185 9.08505 89.9009 8.25008C90.3339 7.48775 90.9532 6.84777 91.701 6.39008C92.44 5.94469 93.2881 5.71278 94.1509 5.72008C94.631 5.69722 95.1107 5.77207 95.561 5.94009C95.6371 5.965 95.7077 6.00469 95.7685 6.05688C95.8294 6.10907 95.8793 6.17274 95.9155 6.24425C95.9518 6.31576 95.9735 6.39371 95.9796 6.47365C95.9857 6.55358 95.9759 6.63392 95.951 6.71008C95.9436 6.80748 95.9073 6.90046 95.8467 6.97708C95.7861 7.0537 95.704 7.11046 95.6109 7.14008C95.4001 7.18581 95.1818 7.18581 94.9709 7.14008C94.6997 7.09796 94.4255 7.0779 94.1509 7.08008C93.4073 7.06775 92.6721 7.23951 92.0109 7.58008C91.3947 7.90249 90.8808 8.39078 90.5274 8.98981C90.174 9.58884 89.9951 10.2748 90.0109 10.9701L89.061 10.9801Z" fill="white"/>
<path d="M104.49 19.1299C103.285 19.1513 102.097 18.8473 101.05 18.2499C100.045 17.6849 99.2151 16.8547 98.6501 15.8499C98.0724 14.7972 97.7695 13.6157 97.7695 12.4149C97.7695 11.2141 98.0724 10.0326 98.6501 8.9799C99.2182 7.98001 100.048 7.15377 101.05 6.5899C102.097 5.99252 103.285 5.68851 104.49 5.7099C105.573 5.69346 106.643 5.95147 107.6 6.4599C108.482 6.92306 109.224 7.61355 109.75 8.4599V0.959897C109.744 0.862432 109.759 0.76479 109.793 0.673425C109.828 0.582061 109.881 0.499056 109.95 0.429897C110.092 0.300744 110.279 0.232496 110.47 0.239896C110.565 0.233326 110.661 0.246848 110.75 0.279582C110.84 0.312315 110.922 0.363529 110.99 0.429897C111.058 0.500126 111.11 0.583304 111.144 0.674401C111.179 0.765498 111.194 0.862621 111.19 0.959897V12.5499C111.192 13.7323 110.874 14.8933 110.27 15.9099C109.697 16.8886 108.876 17.6991 107.89 18.2599C106.855 18.8482 105.681 19.1486 104.49 19.1299ZM104.49 17.7799C105.419 17.8027 106.336 17.5705 107.141 17.1085C107.947 16.6466 108.611 15.9726 109.06 15.1599C109.527 14.3196 109.765 13.3712 109.75 12.4099C109.768 11.4515 109.53 10.5056 109.06 9.6699C108.339 8.46626 107.176 7.5925 105.819 7.23555C104.463 6.87859 103.02 7.0668 101.8 7.7599C100.994 8.23459 100.329 8.91574 99.8735 9.73312C99.4183 10.5505 99.1892 11.4745 99.2101 12.4099C99.1931 13.3727 99.4349 14.3224 99.9101 15.1599C100.363 15.9528 101.014 16.6145 101.8 17.0799C102.617 17.5521 103.547 17.794 104.49 17.7799Z" fill="white"/>
<path d="M116.68 3.10011C116.535 3.10108 116.391 3.07231 116.256 3.01557C116.122 2.95882 116.001 2.8753 115.9 2.77011C115.796 2.66551 115.713 2.54062 115.658 2.40307C115.603 2.26552 115.577 2.1182 115.58 1.97011C115.57 1.81402 115.596 1.65762 115.657 1.51347C115.717 1.36931 115.811 1.24143 115.93 1.14011C116.151 0.960081 116.426 0.861224 116.71 0.860107C116.985 0.864839 117.25 0.963675 117.46 1.14011C117.58 1.24143 117.673 1.36931 117.734 1.51347C117.795 1.65762 117.821 1.81402 117.81 1.97011C117.813 2.11925 117.786 2.2674 117.73 2.40573C117.674 2.54405 117.591 2.6697 117.486 2.77518C117.38 2.88066 117.254 2.96379 117.116 3.01962C116.978 3.07545 116.83 3.10282 116.68 3.10011ZM116.68 18.9801C116.585 18.9844 116.489 18.9687 116.4 18.934C116.311 18.8993 116.23 18.8464 116.162 18.7787C116.094 18.711 116.041 18.6299 116.007 18.5406C115.972 18.4513 115.956 18.3558 115.96 18.2601V6.58011C115.953 6.48252 115.967 6.3845 116.002 6.29293C116.036 6.20137 116.09 6.11848 116.16 6.05011C116.302 5.92095 116.489 5.85271 116.68 5.86011C116.776 5.85354 116.871 5.86706 116.961 5.89979C117.05 5.93253 117.132 5.98374 117.2 6.05011C117.268 6.11999 117.321 6.20311 117.356 6.2943C117.39 6.38548 117.405 6.48277 117.4 6.58011V18.2601C117.405 18.4531 117.333 18.64 117.2 18.7801C117.137 18.8459 117.061 18.8978 116.977 18.9322C116.892 18.9667 116.802 18.983 116.71 18.9801H116.68Z" fill="white"/>
<path d="M122.95 18.9799C122.855 18.9842 122.759 18.9684 122.67 18.9338C122.581 18.8991 122.5 18.8462 122.432 18.7785C122.364 18.7108 122.311 18.6297 122.277 18.5404C122.242 18.4511 122.226 18.3556 122.23 18.2599V6.57989C122.223 6.48231 122.237 6.38428 122.272 6.29272C122.306 6.20115 122.36 6.11827 122.43 6.04989C122.572 5.92074 122.759 5.85249 122.95 5.85989C123.046 5.85332 123.141 5.86685 123.231 5.89958C123.32 5.93231 123.402 5.98353 123.47 6.04989C123.538 6.11978 123.591 6.2029 123.626 6.29408C123.66 6.38527 123.675 6.48256 123.67 6.57989V18.2599C123.675 18.4529 123.603 18.6398 123.47 18.7799C123.404 18.8497 123.323 18.9038 123.233 18.9384C123.143 18.973 123.047 18.9872 122.95 18.9799ZM133.58 18.9799C133.485 18.9845 133.389 18.9691 133.299 18.9347C133.21 18.9003 133.128 18.8475 133.06 18.7799C132.928 18.6398 132.856 18.4529 132.86 18.2599V11.8099C132.892 10.898 132.682 9.99393 132.25 9.18989C131.859 8.52852 131.281 7.99657 130.59 7.65989C129.853 7.33033 129.054 7.15999 128.245 7.15999C127.437 7.15999 126.638 7.33033 125.9 7.65989C125.245 7.95814 124.681 8.42803 124.27 9.01989C123.871 9.58742 123.662 10.2662 123.67 10.9599H122.47C122.523 10.0047 122.827 9.08032 123.35 8.2799C123.876 7.49556 124.587 6.85319 125.42 6.40989C126.286 5.95369 127.252 5.72001 128.23 5.72989C129.306 5.70993 130.371 5.9537 131.33 6.43989C132.241 6.90139 132.998 7.61693 133.51 8.49989C134.065 9.52738 134.337 10.6831 134.3 11.8499V18.2599C134.305 18.4529 134.233 18.6398 134.1 18.7799C134.032 18.8475 133.951 18.9003 133.862 18.9347C133.772 18.9691 133.676 18.9845 133.58 18.9799Z" fill="white"/>
<path d="M144.38 19.1301C143.163 19.1539 141.962 18.8536 140.9 18.2601C139.904 17.7029 139.081 16.8831 138.52 15.8901C137.931 14.8336 137.634 13.6393 137.66 12.4301C137.633 11.2106 137.941 10.0071 138.55 8.95011C139.123 7.95564 139.956 7.13624 140.96 6.58011C142.018 6.00944 143.202 5.71069 144.405 5.71069C145.607 5.71069 146.791 6.00944 147.85 6.58011C148.837 7.14104 149.653 7.96038 150.21 8.95011C150.8 10.0134 151.097 11.2144 151.07 12.4301L150.23 13.4301C150.256 14.4783 150 15.5143 149.49 16.4301C148.998 17.2717 148.286 17.9632 147.43 18.4301C146.488 18.9171 145.439 19.1579 144.38 19.1301ZM144.47 24.0001C143.377 24.0417 142.29 23.8242 141.298 23.3653C140.306 22.9065 139.436 22.2194 138.76 21.3601C138.64 21.221 138.572 21.044 138.57 20.8601C138.571 20.7699 138.593 20.6812 138.634 20.6012C138.676 20.5212 138.736 20.4523 138.81 20.4001C138.974 20.2896 139.175 20.2466 139.37 20.2801C139.471 20.2924 139.568 20.3265 139.654 20.38C139.74 20.4336 139.814 20.5052 139.87 20.5901C140.431 21.2592 141.136 21.7929 141.933 22.1514C142.73 22.5098 143.597 22.6837 144.47 22.6601C145.406 22.674 146.328 22.4245 147.13 21.9401C147.908 21.4492 148.54 20.7585 148.96 19.9401C149.415 19.0709 149.646 18.1013 149.63 17.1201V13.3201L150.28 12.4301H151.12V17.1401C151.141 18.3615 150.844 19.5675 150.26 20.6401C149.707 21.6531 148.896 22.5018 147.91 23.1001C146.87 23.717 145.678 24.0289 144.47 24.0001ZM144.38 17.7801C145.331 17.8012 146.27 17.5664 147.1 17.1001C147.882 16.6495 148.526 15.9921 148.96 15.2001C149.4 14.3396 149.63 13.3868 149.63 12.4201C149.63 11.4534 149.4 10.5006 148.96 9.64011C148.526 8.84807 147.882 8.19073 147.1 7.74011C146.27 7.27385 145.331 7.039 144.38 7.06011C143.422 7.03883 142.476 7.27358 141.64 7.74011C140.852 8.18761 140.205 8.84549 139.77 9.64011C139.329 10.5006 139.099 11.4534 139.099 12.4201C139.099 13.3868 139.329 14.3396 139.77 15.2001C140.205 15.9947 140.852 16.6526 141.64 17.1001C142.476 17.5666 143.422 17.8014 144.38 17.7801Z" fill="white"/>
<path d="M182.951 21.96C182.951 27.78 177.811 32.51 171.461 32.51C165.111 32.51 159.971 27.78 159.971 21.96" stroke="#D99728" stroke-width="2" stroke-miterlimit="10"/>
<path d="M167.791 12.4799C167.493 12.4917 167.203 12.3878 166.981 12.1899C166.878 12.1007 166.796 11.9899 166.741 11.8655C166.686 11.7411 166.658 11.6061 166.661 11.4699C166.656 11.3261 166.682 11.1829 166.737 11.05C166.792 10.9171 166.875 10.7977 166.981 10.6999C167.203 10.5021 167.493 10.3982 167.791 10.4099H173.341C173.623 10.3957 173.9 10.4845 174.121 10.6599C174.225 10.7586 174.306 10.8784 174.359 11.0113C174.413 11.1441 174.437 11.2869 174.431 11.4299C174.435 11.5654 174.41 11.7001 174.356 11.8246C174.303 11.9491 174.222 12.0602 174.121 12.1499C173.898 12.3469 173.608 12.4507 173.311 12.4399L167.791 12.4799ZM173.121 23.0599C172.357 23.0721 171.606 22.86 170.961 22.4499C170.317 22.038 169.796 21.4614 169.451 20.7799C169.075 20.0473 168.886 19.2332 168.901 18.4099V6.95994C168.896 6.80033 168.922 6.64127 168.979 6.49195C169.035 6.34264 169.121 6.20601 169.231 6.08994C169.346 5.97932 169.483 5.89308 169.632 5.83639C169.782 5.77969 169.941 5.75369 170.101 5.75994C170.259 5.7539 170.417 5.78003 170.565 5.83675C170.712 5.89347 170.847 5.97961 170.961 6.08994C171.072 6.20552 171.159 6.34184 171.217 6.49111C171.276 6.64039 171.304 6.7997 171.301 6.95994V18.4099C171.279 18.9881 171.463 19.5551 171.821 20.0099C171.971 20.2126 172.167 20.3771 172.393 20.49C172.619 20.6029 172.868 20.6611 173.121 20.6599H173.941C174.08 20.659 174.218 20.689 174.344 20.7478C174.47 20.8066 174.582 20.8927 174.671 20.9999C174.877 21.2377 174.985 21.5455 174.971 21.8599C174.975 22.0258 174.941 22.1904 174.871 22.3412C174.802 22.492 174.699 22.6249 174.571 22.7299C174.287 22.9548 173.933 23.0717 173.571 23.0599H173.121Z" fill="white"/>
<path d="M183.83 19.1401C182.595 19.162 181.376 18.8659 180.29 18.2801C179.28 17.7376 178.441 16.9236 177.87 15.9301C177.27 14.8843 176.966 13.6953 176.99 12.4901C176.966 11.2816 177.252 10.0872 177.82 9.02005C178.355 8.03696 179.151 7.2204 180.12 6.66005C181.143 6.08063 182.304 5.78705 183.48 5.81005C184.609 5.7748 185.725 6.05904 186.7 6.63005C187.585 7.18079 188.296 7.97141 188.75 8.91005C189.238 9.95816 189.481 11.1039 189.46 12.2601C189.465 12.4015 189.44 12.5423 189.386 12.6733C189.333 12.8043 189.252 12.9225 189.15 13.0201C188.933 13.2218 188.645 13.3297 188.35 13.3201H178.68V11.4101H188.28L187.28 12.0801C187.273 11.3375 187.11 10.6048 186.8 9.93005C186.51 9.32154 186.061 8.80308 185.5 8.43005C184.901 8.05556 184.206 7.86437 183.5 7.88005C182.679 7.85675 181.868 8.06466 181.16 8.48005C180.519 8.87055 180.008 9.44092 179.69 10.1201C179.34 10.8606 179.166 11.6714 179.18 12.4901C179.165 13.313 179.373 14.1247 179.78 14.8401C180.174 15.5246 180.748 16.0883 181.44 16.4701C182.179 16.8797 183.014 17.0867 183.86 17.0701C184.378 17.0671 184.892 16.9758 185.38 16.8001C185.832 16.6506 186.26 16.4349 186.65 16.1601C186.87 15.9874 187.14 15.8893 187.42 15.8801C187.69 15.8709 187.954 15.9637 188.16 16.1401C188.281 16.2361 188.381 16.3555 188.455 16.4913C188.529 16.627 188.575 16.7762 188.59 16.9301C188.594 17.0755 188.561 17.2196 188.495 17.3491C188.429 17.4785 188.33 17.5889 188.21 17.67C187.608 18.1343 186.932 18.4927 186.21 18.7301C185.444 18.9974 184.64 19.1359 183.83 19.1401Z" fill="white"/>
<path d="M193.789 24.66C193.627 24.6632 193.465 24.6339 193.314 24.5738C193.163 24.5137 193.025 24.424 192.909 24.31C192.796 24.1939 192.707 24.056 192.649 23.9048C192.591 23.7535 192.563 23.592 192.569 23.43V12.49C192.563 11.2964 192.867 10.1217 193.449 9.07995C194.006 8.07754 194.821 7.24209 195.809 6.65995C196.562 6.21364 197.396 5.92132 198.263 5.79995C199.13 5.67857 200.012 5.73056 200.859 5.9529C201.705 6.17524 202.499 6.56351 203.195 7.09516C203.89 7.62681 204.473 8.29126 204.909 9.04995C205.505 10.0861 205.81 11.2646 205.789 12.46C205.807 13.6387 205.532 14.8035 204.989 15.85C204.479 16.8235 203.72 17.6446 202.789 18.23C201.93 18.7522 200.955 19.0521 199.951 19.1028C198.947 19.1534 197.946 18.9531 197.039 18.52C196.269 18.1314 195.587 17.5865 195.039 16.92V23.4C195.05 23.7254 194.931 24.0419 194.709 24.28C194.592 24.4054 194.449 24.5043 194.29 24.5698C194.132 24.6354 193.961 24.6661 193.789 24.66ZM199.169 16.98C199.937 16.9902 200.692 16.7858 201.349 16.39C201.99 15.9985 202.515 15.4426 202.869 14.78C203.255 14.0792 203.451 13.2899 203.439 12.49C203.453 11.6803 203.257 10.8808 202.869 10.17C202.512 9.50925 201.988 8.95401 201.349 8.55995C200.691 8.16708 199.936 7.96618 199.169 7.97995C198.403 7.96881 197.648 8.16953 196.989 8.55995C196.35 8.95401 195.826 9.50925 195.469 10.17C195.092 10.8841 194.903 11.6825 194.919 12.49C194.905 13.2876 195.094 14.0757 195.469 14.78C195.823 15.4521 196.356 16.0134 197.009 16.4016C197.662 16.7899 198.41 16.99 199.169 16.98Z" fill="white"/>
</g>
<defs>
<clipPath id="clip0">
<rect width="205.79" height="33.51" fill="white"/>
</clipPath>
</defs>
</svg>
